# xmcd CD database file
#
# Track frame offsets:
#	150
#	20700
#	32045
#	49585
#	70875
#	73490
#	85950
#	107290
#	123620
#	135880
#	150855
#	167040
#	184400
#
# Disc length: 2634 seconds
#
# Revision: 0
# Processed by: cddbd v1.5.1PL0 Copyright (c) Steve Scherf et al.
# Submitted via: CDex 1.51
#
DISCID=ac0a480d
DTITLE=Brent Mitchell - Fallen Angel Palace
DYEAR=1999
DGENRE=Country
TTITLE0=Take Me Back Home
TTITLE1=How Now
TTITLE2=Coal Miner's Lung
TTITLE3=Call Me
TTITLE4=Intro
TTITLE5=Ticket To Heaven
TTITLE6=Angel Of Flesh And Bone
TTITLE7=Boquillas
TTITLE8=Goodbye
TTITLE9=Sunlight
TTITLE10=Ladybug
TTITLE11=Drive Me To Drinkin'
TTITLE12=Trailer Park
EXTD=YEAR: 1999
EXTT0=
EXTT1=
EXTT2=
EXTT3=
EXTT4=
EXTT5=
EXTT6=
EXTT7=
EXTT8=
EXTT9=
EXTT10=
EXTT11=
EXTT12=
PLAYORDER=
